<?xml version="1.0" encoding="utf-8"?>
<!-- Generator: Adobe Illustrator 18.0.0, SVG Export Plug-In . SVG Version: 6.00 Build 0)  -->
<!DOCTYPE svg PUBLIC "-//W3C//DTD SVG 1.1//EN" "http://www.w3.org/Graphics/SVG/1.1/DTD/svg11.dtd">
<svg version="1.1" id="Layer_1" xmlns="http://www.w3.org/2000/svg" xmlns:xlink="http://www.w3.org/1999/xlink" x="0px" y="0px"
	 viewBox="0 0 400 150" enable-background="new 0 0 400 150" xml:space="preserve">
<path fill="#0D0D0D" d="M76.2,69h9.1c0,0,2.1-8.6,10.4-8.8c0,0,6.4,0.1,9,3.7h10.1c0,0-4.4-12.2-18.3-12.6
	C96.5,51.3,78.3,51.3,76.2,69z"/>
<path fill="#0D0D0D" d="M76.2,72.8h9.1c0,0,2.1,8.6,10.4,8.8c0,0,6.4-0.1,9-3.7h10.1c0,0-3.9,12-18.3,12.6
	C96.5,90.5,78,91.4,76.2,72.8z"/>
<rect x="122" y="51.3" fill="#0D0D0D" width="9.2" height="39.6"/>
<rect x="137.6" y="51.3" fill="#0D0D0D" width="32.3" height="8.4"/>
<rect x="149" y="63.2" fill="#0D0D0D" width="9.2" height="27.8"/>
<polygon fill="#0D0D0D" points="199,74.6 199,91 188.6,91 188.6,74.6 174.8,51.3 185.3,51.3 "/>
<polygon fill="#0D0D0D" points="195.9,62.7 201.2,71.3 213,51.3 202.5,51.3 "/>
<rect x="218.3" y="51.3" fill="#0D0D0D" width="9.2" height="27.9"/>
<rect x="218.3" y="82.6" fill="#0D0D0D" width="26.8" height="8.4"/>
<polygon fill="#0D0D0D" points="260.2,91 250.6,91 265.4,51.3 275,51.3 "/>
<polygon fill="#0D0D0D" points="279.1,75.3 270.1,75.3 267,83.4 281.8,83.4 "/>
<polygon fill="#0D0D0D" points="273,66.7 281.8,90.5 291.7,90.5 277.7,53.5 "/>
<rect x="297.9" y="51.3" fill="#0D0D0D" width="8" height="39.6"/>
<path fill="#0D0D0D" d="M309.3,51.3v8h7.4c0,0,3.1,0.8,3.1,3.7c0,2.8-2.7,4.1-2.7,4.1h-7.8v7.8h7.1c0,0,3.2,0.2,3.3,3.9
	c0.1,3.7-3,4-3,4h-7.5V91h8.4c0,0,10.4-1.9,10.2-11.6c0,0,0.2-6.3-4.1-9c0,0,2.5-1.8,2.5-7.4c0,0,0.1-10.4-10.2-11.6H309.3z"/>
</svg>
