<?xml version="1.0" encoding="utf-8"?>
<!-- Generator: Adobe Illustrator 18.0.0, SVG Export Plug-In . SVG Version: 6.00 Build 0)  -->
<!DOCTYPE svg PUBLIC "-//W3C//DTD SVG 1.1//EN" "http://www.w3.org/Graphics/SVG/1.1/DTD/svg11.dtd">
<svg version="1.1" id="Layer_1" xmlns="http://www.w3.org/2000/svg" xmlns:xlink="http://www.w3.org/1999/xlink" x="0px" y="0px"
	 viewBox="0 0 400 150" enable-background="new 0 0 400 150" xml:space="preserve">
<g>
	<g>
		<path fill="none" d="M266.8,77.7c-0.6-0.9-1.5-1-2-1c-0.4,0-1.3,0-2,0.9c-0.4,0.5-0.6,1.1-0.7,1.6h5.1
			C267.2,78.7,267.1,78.2,266.8,77.7z"/>
		<path fill="none" d="M274.5,84.3c0.2,0,1.2-0.1,2.2-1.2v-2.8c-0.7,0.4-0.9,0.5-1.6,0.8c-0.6,0.2-2,0.7-2,1.9
			C273,83.7,273.6,84.3,274.5,84.3z"/>
		<path fill="none" d="M100,86.6c0-2.5-0.9-4.4-3.1-5.4c-1.5-0.6-3.2-0.7-5.4-0.7h-2.3v12H92C95.7,92.5,100,91.4,100,86.6z"/>
		<path fill="none" d="M134.9,77.7c-0.6-0.9-1.5-1-2-1c-0.4,0-1.3,0-2,0.9c-0.4,0.5-0.6,1.1-0.7,1.6h5.1
			C135.4,78.7,135.3,78.2,134.9,77.7z"/>
		<path fill="none" d="M231.7,84.9c0.3,0,0.7-0.1,1-0.3c1.3-0.8,1.4-2.9,1.4-3.6c0-1.6-0.5-2.9-1.1-3.6c-0.4-0.4-1-0.7-1.7-0.7
			c-0.8,0-1.4,0.4-1.8,0.9c-0.5,0.7-0.8,1.8-0.8,2.9C228.9,82.4,229.6,84.9,231.7,84.9z"/>
		<path fill="none" d="M98.8,97.9c-2-1.2-4.2-1.3-5.9-1.3h-3.7v9.3c0,2.6,0.1,4.8,3.8,4.8c2.2,0,4.7-0.3,6.4-1.6
			c1.2-0.9,2.4-2.6,2.4-5.3C101.8,100.2,99.8,98.5,98.8,97.9z"/>
		<path fill="#004C45" d="M250.3,77.5L254,86h1.3l3.9-8.5c0.5-1,0.7-1.3,1.3-1.3v-0.3h-3.9v0.3c0.3,0,0.9,0.1,0.9,0.9
			c0,0.3-0.2,0.7-0.2,0.9l-2.1,4.8l-2-5c-0.1-0.2-0.2-0.5-0.2-0.7c0-0.7,0.6-0.8,0.8-0.8v-0.3h-5v0.3
			C249.6,76.2,250,76.6,250.3,77.5z"/>
		<path fill="#004C45" d="M99.9,94c4.1-1.1,7.7-3.5,7.7-8.5c0-3.2-1.4-6.4-5.1-7.9c-2.1-0.9-4.7-1-8-1H78.6v0.8
			c3.3,0.4,3.3,2.3,3.3,5.1v26.4c0,3-0.4,4.4-3.3,4.9v0.8h16.3c2.9,0,6.6,0,9.8-1.9c2.5-1.5,4.8-4.4,4.8-8.6
			C109.5,98.1,105,95.1,99.9,94z M89.2,80.5h2.3c2.2,0,3.9,0.1,5.4,0.7c2.2,1,3.1,2.9,3.1,5.4c0,4.9-4.3,5.9-7.9,5.9h-2.9V80.5z
			 M99.4,109.1c-1.7,1.2-4.3,1.6-6.4,1.6c-3.8,0-3.8-2.2-3.8-4.8v-9.3h3.7c1.7,0,3.9,0.1,5.9,1.3c1,0.6,3,2.4,3,5.9
			C101.8,106.4,100.6,108.2,99.4,109.1z"/>
		<path fill="#004C45" d="M119.2,93.3v-4.6l-10.4,5.4l0.3,0.6c3.4,0,3.5,2.6,3.5,5.4v8c0,1-0.1,2.5-0.4,3.5c-0.7,1.6-1.9,2-2.8,2.3
			v0.8h13.2v-0.8c-3-1.1-3.3-1.7-3.3-5.7v-7.4c0-1.3,0-2.9,1.1-4.4c1-1.3,2.4-2.2,4.2-2.2c2.4,0,3.3,1.5,4,2.6h0.6l1.1-7.2
			c-0.6-0.2-1.6-0.6-3.1-0.6C123,89,120.8,91.4,119.2,93.3z"/>
		<path fill="#004C45" d="M158.8,105.5V89.2l-9.9,2v0.8c2.6,0.4,3.2,1.4,3.2,4v8.7c0,1.1-0.1,2.7-1.3,4.2c-1,1.1-2.6,1.9-4.7,1.9
			c-2.5,0-4.2-1.2-4.8-3.2c-0.3-0.9-0.4-1.7-0.4-2.9V89.2l-9.8,2v0.8c2.8,0.4,3,1.8,3,4.6v9.4c0,2,0.1,4.4,1.7,6.4
			c0.7,0.9,2.7,3.1,7.2,3.1c4.4,0,7.5-2.3,9.4-4.8c0.4,1.5,1.1,3.1,3.6,5l5.9-4.4l-0.3-0.5C158.8,110.2,158.8,108.2,158.8,105.5z"/>
		<path fill="#004C45" d="M190.3,108.4v-9.3c0-2.4-0.1-4.8-1.7-6.8c-1.2-1.6-3.6-3.1-7.1-3.1c-4.6,0-7.3,2.5-9.1,4.2v-4.7L162,94.1
			l0.4,0.6c3.3,0.1,3.3,1.8,3.3,5.3v8.2c0,2.7-0.1,5.1-3.2,5.6v0.8h13.1l-0.1-0.8c-2.9-0.8-3-2-3-4.9v-9.2c0-1.3,0.1-3.1,1.9-4.6
			c0.9-0.6,2.1-1.2,3.8-1.2c5.3,0,5.3,4.4,5.3,5.8v9.2c0,2.8-0.1,4.3-3,4.9v0.8h12.9v-0.8C190.4,113.2,190.3,111.7,190.3,108.4z"/>
		<path fill="#004C45" d="M207.8,100.4l-2-1c-1.7-0.8-3.8-1.8-3.8-3.9c0-1.8,1.7-3.2,4.1-3.2c3.9,0,4.6,2.7,5,4h0.8v-6
			c-1.2-0.4-3.6-1.3-7-1.3c-6.2,0-9.5,3.5-9.5,7.6c0,3.8,2.8,5.3,4.2,6.1l2.3,1.1c1.9,1,4.3,2.2,4.3,4.6c0,2.7-2.5,3.7-4.7,3.7
			c-4,0-5-2.8-5.5-4.4H195v6.4c2,0.6,3.9,1.2,7.3,1.2c4.3,0,6.6-1.4,7.8-2.4c1.7-1.5,2.6-3.7,2.6-5.8
			C212.8,102.8,209.1,101,207.8,100.4z"/>
		<path fill="#004C45" d="M258.3,90.1h-9.6v0.8c0.6,0.1,2.3,0.4,2.3,2.3c0,0.6-0.3,1.2-0.5,1.9l-5.2,11.9l-5-11.9
			c-0.2-0.5-0.4-1.2-0.4-1.8c0-1.9,1.5-2.2,2.2-2.4v-0.8h-12.5v0.8c1.4,0.3,2,0.6,2.9,2.4l1.2,2.6l-5,10.9l-4.8-11.7
			c-0.2-0.5-0.5-1.2-0.5-1.9c0-1.4,0.8-2.2,2.2-2.4v-0.8h-12.5v0.8c2.1,0.7,2.3,1.1,3.5,3.9l8.8,20.3h3.2l6.9-14.7l6.5,14.7h3.2
			l9.5-20.3c1.1-2.4,1.5-3.2,3.6-3.9V90.1z"/>
		<path fill="#004C45" d="M139.1,77.7l3.6,8.2h1.3l2.8-5.9l2.6,5.9h1.3l3.9-8.2c0.5-1,0.6-1.3,1.4-1.6v-0.3h-3.9v0.3
			c0.2,0,0.9,0.2,0.9,0.9c0,0.2-0.1,0.5-0.2,0.8l-2.1,4.8l-2-4.8c-0.1-0.2-0.2-0.5-0.2-0.7c0-0.8,0.6-0.9,0.9-1v-0.3h-5v0.3
			c0.6,0.1,0.8,0.3,1.2,1l0.5,1.1l-2,4.4l-1.9-4.7c-0.1-0.2-0.2-0.5-0.2-0.8c0-0.6,0.3-0.9,0.9-1v-0.3h-5.1v0.3
			C138.6,76.4,138.7,76.6,139.1,77.7z"/>
		<path fill="#004C45" d="M268.3,108.8V88.7l-10.4,5.1l0.3,0.6c3.2-0.2,3.3,1.3,3.3,4.1v10c0,3.1,0,4.4-3.2,5.3v0.8h13.3v-0.8
			C268.7,113.1,268.3,112.4,268.3,108.8z"/>
		<path fill="#004C45" d="M294,106.5c-1.6,1.6-3.8,3.8-7.9,3.8c-6.3,0-8.5-5.3-8.5-9.3c0-4.3,2.2-8.6,7.4-8.6c4.9,0,6,3.4,6.9,5.8
			h0.8l1.2-6.1c-1.2-0.8-4.1-2.8-8.9-2.8c-8.2,0-13.4,6.2-13.4,13.8c0,5.4,3.1,12.5,11.9,12.5c4.2,0,8.2-1.5,11.3-8.6L294,106.5z"/>
		<path fill="#004C45" d="M321.2,110.8L310.9,100l7.6-6.7c2.1-1.8,2.2-1.9,3.7-2.4v-0.8h-10.5v0.8c0.5,0.1,1.5,0.3,1.5,1.3
			c0,0.7-0.5,1.2-1.5,2.2l-7.6,6.6V75.9l-10.4,5.3l0.3,0.6c0.4-0.1,0.7-0.2,1-0.2c2.3,0,2.4,2.1,2.4,4.3v23.6c0,2.3-0.3,3.8-3.1,4.3
			v0.8h12.8v-0.8c-3-0.6-3.1-2.3-3.1-4.8V102l8.4,8.8c2.7,2.8,3.7,3.7,8.4,3.8h3.9v-0.8C323.3,113.2,322.2,112,321.2,110.8z"/>
		<path fill="#004C45" d="M213.8,85.5c-0.9-0.2-1.3-0.4-1.3-1.9V73.3l10.9,12.6h1.3V72.5c0-1.2,0.2-1.7,1.3-1.9v-0.3h-4.4v0.3
			c1.2,0.2,1.4,0.8,1.4,2V81l-9.2-10.7h-4.4v0.3c0.4,0,0.9,0.1,1.2,0.7c0.1,0.3,0.1,0.6,0.1,1.1v11.1c0,0.7-0.1,1.2-0.4,1.5
			c-0.3,0.3-0.6,0.3-0.9,0.4v0.3h4.4V85.5z"/>
		<path fill="#004C45" d="M115.4,85.5c-0.9-0.2-1.3-0.4-1.3-1.9V73.3L125,85.9h1.3V72.5c0-1.2,0.2-1.7,1.3-1.9v-0.3h-4.4v0.3
			c1.2,0.2,1.4,0.8,1.4,2V81l-9.2-10.7h-4.4v0.3c0.4,0,0.9,0.1,1.2,0.7c0.1,0.3,0.1,0.6,0.1,1.1v11.1c0,0.7-0.1,1.2-0.4,1.5
			c-0.3,0.3-0.6,0.3-0.9,0.4v0.3h4.4V85.5z"/>
		<path fill="#004C45" d="M227.4,84.6c1.2,1.3,2.7,1.5,4,1.5c4.1,0,5.7-2.8,5.7-5.4c0-2.8-1.8-5.3-5.5-5.3c-3.5,0-5.6,2.5-5.6,5.4
			C225.9,82.3,226.5,83.7,227.4,84.6z M229.6,77.6c0.3-0.5,1-0.9,1.8-0.9c0.7,0,1.3,0.3,1.7,0.7c0.6,0.6,1.1,1.9,1.1,3.6
			c0,0.7-0.1,2.9-1.4,3.6c-0.3,0.2-0.7,0.3-1,0.3c-2,0-2.8-2.4-2.8-4.4C228.9,79.3,229.1,78.3,229.6,77.6z"/>
		<path fill="#004C45" d="M238.2,78.4v3.8c0,0.8,0,1.8,0.7,2.6c0.3,0.4,1.1,1.3,2.9,1.3c1.8,0,3.1-0.9,3.8-2c0.2,0.6,0.4,1.3,1.5,2
			l2.4-1.8l-0.1-0.2c-1.1-0.2-1.1-1-1.1-2.1v-6.7l-4,0.8v0.3c1.1,0.2,1.3,0.6,1.3,1.6v3.5c0,0.5,0,1.1-0.5,1.7
			c-0.4,0.5-1.1,0.8-1.9,0.8c-1,0-1.7-0.5-2-1.3c-0.1-0.4-0.2-0.7-0.2-1.2v-6.3l-4,0.8v0.3C238.1,76.7,238.2,77.3,238.2,78.4z"/>
		<path fill="#004C45" d="M264.9,86.1c2.8,0,3.9-1.6,4.8-3.4l-0.3-0.2c-0.6,0.5-1.6,1.5-3.7,1.5c-1.1,0-2.7-0.3-3.3-2.1
			c-0.2-0.6-0.2-1.1-0.2-1.5h7.9c-0.1-1-0.3-2.1-0.8-2.9c-1.2-1.9-3.2-2.1-4.1-2.1c-3.6,0-5.4,2.7-5.4,5.4
			C259.6,83.4,261.3,86.1,264.9,86.1z M262.8,77.6c0.7-0.9,1.6-0.9,2-0.9c0.5,0,1.4,0.1,2,1c0.3,0.5,0.4,1,0.5,1.6h-5.1
			C262.2,78.7,262.4,78.1,262.8,77.6z"/>
		<path fill="#004C45" d="M133.1,86.1c2.8,0,3.9-1.6,4.8-3.4l-0.3-0.2c-0.6,0.5-1.6,1.5-3.7,1.5c-1.1,0-2.7-0.3-3.3-2.1
			c-0.2-0.6-0.2-1.1-0.2-1.5h7.9c-0.1-1-0.3-2.1-0.8-2.9c-1.2-1.9-3.2-2.1-4.1-2.1c-3.6,0-5.4,2.7-5.4,5.4
			C127.8,83.4,129.4,86.1,133.1,86.1z M131,77.6c0.7-0.9,1.6-0.9,2-0.9c0.5,0,1.4,0.1,2,1c0.4,0.5,0.4,1,0.5,1.6h-5.1
			C130.4,78.7,130.6,78.1,131,77.6z"/>
		<path fill="#004C45" d="M273.5,86.1c1.7,0,2.6-0.9,3.4-1.6c0.2,0.8,0.5,1.2,1.3,1.7l2.5-1.8l-0.2-0.3c-1.1-0.5-1.2-1-1.2-2.2v-2.4
			c0-1.2,0-2-0.6-2.8c-0.9-1.2-2.5-1.3-3.3-1.3c-0.9,0-2.2,0.1-3.8,0.7l-0.3,2.3h0.3c0.3-0.4,0.6-0.8,1.2-1.1c0.6-0.4,1.4-0.6,2-0.6
			c0.7,0,1.3,0.2,1.6,0.8c0.1,0.2,0.2,0.5,0.2,0.7c0,1.1-1.1,1.4-2.1,1.7l-0.7,0.2c-1,0.3-3.4,0.9-3.4,3.2
			C270.3,84.4,271.1,86.1,273.5,86.1z M275,81.1c0.8-0.3,1-0.4,1.6-0.8v2.8c-1,1.1-2,1.2-2.2,1.2c-0.8,0-1.4-0.6-1.4-1.3
			C273,81.7,274.4,81.3,275,81.1z"/>
		<path fill="#004C45" d="M281.5,78.4v3.8c0,0.8,0,1.8,0.7,2.6c0.3,0.4,1.1,1.3,2.9,1.3c1.8,0,3.1-0.9,3.8-2c0.2,0.6,0.4,1.3,1.4,2
			l2.4-1.8l-0.1-0.2c-1.1-0.2-1.1-1-1.1-2.1v-6.7l-4,0.8v0.3c1.1,0.2,1.3,0.6,1.3,1.6v3.5c0,0.5,0,1.1-0.5,1.7
			c-0.4,0.5-1.1,0.8-1.9,0.8c-1,0-1.7-0.5-2-1.3c-0.1-0.4-0.2-0.7-0.2-1.2v-6.3l-4,0.8v0.3C281.3,76.7,281.5,77.3,281.5,78.4z"/>
	</g>
	<g>
		<path fill="#004A97" d="M177.4,78.7c-9.5,0.4-22.7,7.4-22.7,7.4s7.3-3.3,15.3-4.4c-0.7,0.7-1,1.6-0.8,2.3c0.4,2,4.7,3.2,8.4,2.4
			c1.1-0.2,2-0.6,2.9-1c-0.8,0.3-6.9,0-6.7-2.4c0.1-1.8,4.1-2.7,7.1-1.6c2.5,0.9,4.3,4.1,3.6,5.5c0.1-0.2,0.3-0.4,0.4-0.6
			C185.9,83.9,184.9,78.3,177.4,78.7z"/>
		<path fill="#004A97" d="M207.9,80.8c-0.4-2-3.7-3-7.4-2.3c-1.6,0.3-3,1-4.1,1.6c-2.6,1.5-6.3,4.7-6.3,4.7c0.9-0.6,2-1.2,3.2-1.8
			c1.6-0.7,8.8-3.6,9.7-1.1c0.4,1.1-1,2.6-4.7,3.1c-1,0.1-2.3,0.1-3-0.3c1.3,1,3.8,1.4,6.5,0.9C205.6,85,208.3,82.8,207.9,80.8z"/>
	</g>
	<path fill="none" d="M186,37.8c0,0,6.6,6.2-11.9,28.4c0,0,14-11.6,22.6-9.3c0,0,3.4,0.8,6.4,5.5c2.4-5.6,4.4-11.7,2.6-17.1
		C205.7,45.2,200.1,37.8,186,37.8z"/>
	<path fill="#7A232E" d="M153.2,85.3c0,0,29.8-15.6,44.5-13.3c-5.8,8.7-12.3,15-12.3,15c9.4-6.3,15.1-12.7,18.5-18.7
		C185.4,61,153.2,85.3,153.2,85.3z"/>
	<path fill="#7A232E" d="M207.3,44.1c0,0-3.1-4-10.2-6.9c-0.4-2.5-1-4.7-1.7-6.6c0.4,1.7,0.5,4.2,0.3,6.1
		c-4.4-1.5-10.1-2.6-17.4-2.2c0,0,15.6,7.3-16,41.6c0,0,25.9-17.8,34.5-15.5c0,0,3.7,0.5,7.5,6.9C211.2,54.5,207.3,44.1,207.3,44.1z
		 M203.1,62.3c-3-4.7-6.4-5.5-6.4-5.5c-8.6-2.3-22.6,9.3-22.6,9.3C192.7,44,186,37.8,186,37.8c14,0,19.7,7.4,19.7,7.4
		C207.5,50.6,205.5,56.8,203.1,62.3z"/>
	<path fill="#7A232E" d="M194.1,31.3c-8.2-1.2-12.8,1.3-13.3,1.6c8.6,0.2,10.3,1.1,13.3,1.9C194.4,33.6,194.1,31.3,194.1,31.3z"/>
</g>
</svg>
