<?xml version="1.0" encoding="utf-8"?>
<!-- Generator: Adobe Illustrator 18.0.0, SVG Export Plug-In . SVG Version: 6.00 Build 0)  -->
<!DOCTYPE svg PUBLIC "-//W3C//DTD SVG 1.1//EN" "http://www.w3.org/Graphics/SVG/1.1/DTD/svg11.dtd">
<svg version="1.1" id="Layer_1" xmlns="http://www.w3.org/2000/svg" xmlns:xlink="http://www.w3.org/1999/xlink" x="0px" y="0px"
	 viewBox="0 0 15 15" enable-background="new 0 0 15 15" xml:space="preserve">
<circle fill="none" stroke="#333333" stroke-width="0.7" stroke-miterlimit="10" cx="7.4" cy="7.5" r="6.8"/>
<path fill="#333333" d="M8.5,4.4C7.7,4.4,7,4.9,6.7,5.5c-0.1,0-0.2,0-0.3,0c-0.7,0-1.2,0.4-1.5,1c0,0-0.1,0-0.1,0
	C4,6.5,3.3,7.2,3.3,8c0,0.9,0.7,1.5,1.5,1.5H10c0.9,0,1.5-0.7,1.5-1.5c0-0.7-0.4-1.2-1-1.5c0,0,0-0.1,0-0.1
	C10.5,5.4,9.6,4.4,8.5,4.4L8.5,4.4z"/>
</svg>
