<?xml version="1.0" encoding="utf-8"?>
<!-- Generator: Adobe Illustrator 18.0.0, SVG Export Plug-In . SVG Version: 6.00 Build 0)  -->
<!DOCTYPE svg PUBLIC "-//W3C//DTD SVG 1.1//EN" "http://www.w3.org/Graphics/SVG/1.1/DTD/svg11.dtd">
<svg version="1.1" id="Layer_1" xmlns="http://www.w3.org/2000/svg" xmlns:xlink="http://www.w3.org/1999/xlink" x="0px" y="0px"
	 width="22px" height="22px" viewBox="0 0 22 22" enable-background="new 0 0 22 22" xml:space="preserve">
<rect fill="none" width="22" height="22"/>
<sodipodi:namedview  inkscape:zoom="0.13169643" borderopacity="1" showgrid="false" objecttolerance="10" guidetolerance="10" bordercolor="#666666" inkscape:cy="896" inkscape:cx="896" gridtolerance="10" pagecolor="#ffffff" id="namedview3019" inkscape:pageopacity="0" inkscape:window-x="0" inkscape:window-height="480" inkscape:window-maximized="0" inkscape:current-layer="svg3013" inkscape:window-width="640" inkscape:window-y="25" inkscape:pageshadow="2">
	</sodipodi:namedview>
<g id="Phone">
	<path fill="#0089FF" d="M13.3,4.2h-4l0-1.2c0-0.5-0.4-0.9-0.9-0.9C7.9,2.1,7.5,2.5,7.5,3l0,1.4C6.7,4.9,6.1,5.8,6.1,6.8v4.8
		c0,1.4,0.2,3.6,0.5,4.8c0.3,1.2,1.7,2.2,3.1,2.2h2.6c1.4,0,2.8-1,3.1-2.3c0.3-1.3,0.5-3.4,0.5-4.9V6.8C15.9,5.3,14.7,4.2,13.3,4.2z
		 M11,16.6c-0.6,0-1-0.5-1-1c0-0.6,0.5-1,1-1c0.6,0,1,0.5,1,1C12,16.2,11.6,16.6,11,16.6z M14.2,10.1c0,0.3-0.2,0.5-0.5,0.5H8.4
		c-0.3,0-0.5-0.2-0.5-0.5V6.9c0-0.3,0.2-0.5,0.5-0.5h5.3c0.3,0,0.5,0.2,0.5,0.5V10.1z"/>
</g>
</svg>
