<?xml version="1.0" encoding="utf-8"?>
<!-- Generator: Adobe Illustrator 18.0.0, SVG Export Plug-In . SVG Version: 6.00 Build 0)  -->
<!DOCTYPE svg PUBLIC "-//W3C//DTD SVG 1.1//EN" "http://www.w3.org/Graphics/SVG/1.1/DTD/svg11.dtd">
<svg version="1.1" id="Layer_1" xmlns="http://www.w3.org/2000/svg" xmlns:xlink="http://www.w3.org/1999/xlink" x="0px" y="0px"
	 width="390px" height="175px" viewBox="0 0 390 175" enable-background="new 0 0 390 175" xml:space="preserve">
<path fill="#0F81C4" d="M77.4,70.1c0,0,8-3.7,11.9,0c0,0,4.5,6.4,0,10.2l-3.3,3.1l-0.2,5.8h-1.5l-1.5-6
	C82.9,83.2,70.9,82.6,77.4,70.1z"/>
<path fill="#0F81C4" d="M99.7,85.8v-4.2c0,0-7.5-1.8-6.8-6.6c0,0-2.3-7.2,6.8-8.2c0,0,5.7-0.3,6.2,1.7c0,0,1.5-8.2,8.9-1.8
	c0,0,5.1-2.3,5.8,1.8c0,0,1.7,6.5-5.8,8.3l-0.2,6.8l-3.2,0.2l-0.4-6.8c0,0,0.1,2.2-4.3,0.2c0,0-1.2,2.2-3.6,2.6c-2.3,0.4,0,6,0,6
	H99.7z"/>
<path fill="#0F81C4" d="M184.2,22.4l1.1,58.3h13.8V46l19.7-1.1V28.3c27.8-17.1,59.1-2.7,59.1-2.7l-14.2,61.6
	c80.7,2.7,121.6,32.7,121.6,32.7c-52.8,11.8-127.8,2.7-127.8,2.7C245,96.8,191,89.9,191,89.9c-16.7-0.8-16.5-8.6-16.5-8.6l-4-77.1
	L184.2,22.4z M4.7,119.8c0,0,114.7-21.9,194.3-7c0,0-1.7-7.5-19.3-13.9c0,0-9.1-4.3-9.1-18.7L166,1l-47.7,20.9
	c0,0,11.9,57.8,8.5,62.1C126.8,84,56.4,92.5,4.7,119.8z M127.7,27.7l7.2-2.9v9.1h-6.4l-0.8,0.7 M129.8,39.1l6.8-0.9v7.2h-6.1
	L129.8,39.1z M131.3,49.8h7.2v6.4l-7.2,0.7V49.8z M133.2,63.4l6.9-1.6v7.4h-6.4L133.2,63.4z M204.9,56h5.1v-4.4h-5.1V56z
	 M204.9,65.5h5.1v-5.3h-5.1V65.5z M204.9,74.1h5.1v-4.8h-5.1V74.1z M275.7,35.1c0,0-3.6-3.6-38.5-4.2v7.2c0,0,28.4-2.4,37.5,1.1
	L275.7,35.1z M237.3,49.8c27.3-3.6,34.5,2.7,34.5,2.7L273,47c-0.6-3.6-35.7-3.5-35.7-3.5V49.8z M237.3,61
	c25.1-0.8,31.6,3.8,31.6,3.8L270,60c-7-5.2-32.7-3.2-32.7-3.2V61z"/>
<g>
	<text transform="matrix(1.0612 0 0 1 38.8686 151.8446)" fill="#0F81C4" font-family="'MyriadPro-Semibold'" font-size="47.9736">TotalPave</text>
</g>
</svg>
