<?xml version="1.0" encoding="utf-8"?>
<!-- Generator: Adobe Illustrator 18.0.0, SVG Export Plug-In . SVG Version: 6.00 Build 0)  -->
<!DOCTYPE svg PUBLIC "-//W3C//DTD SVG 1.1//EN" "http://www.w3.org/Graphics/SVG/1.1/DTD/svg11.dtd">
<svg version="1.1" id="Layer_1" xmlns="http://www.w3.org/2000/svg" xmlns:xlink="http://www.w3.org/1999/xlink" x="0px" y="0px"
	 width="79.8px" height="79.8px" viewBox="0 0 79.8 79.8" enable-background="new 0 0 79.8 79.8" xml:space="preserve">
<circle fill="none" stroke="#333333" stroke-width="3" stroke-miterlimit="10" cx="39.9" cy="39.9" r="38.4"/>
<path fill="#333333" d="M45.7,22.7c-4.3,0-8.1,2.4-10.1,5.9c-0.5-0.1-1-0.2-1.5-0.2c-3.8,0-7,2.4-8.2,5.8c-0.2,0-0.3-0.1-0.5-0.1
	c-4.8,0-8.7,3.9-8.7,8.7c0,4.8,3.9,8.7,8.7,8.7h28.9c4.8,0,8.7-3.9,8.7-8.7c0-3.8-2.4-7-5.8-8.2c0-0.2,0.1-0.3,0.1-0.5
	C57.2,27.9,52.1,22.7,45.7,22.7L45.7,22.7z"/>
</svg>
