<?xml version="1.0" encoding="utf-8"?>
<!-- Generator: Adobe Illustrator 18.0.0, SVG Export Plug-In . SVG Version: 6.00 Build 0)  -->
<!DOCTYPE svg PUBLIC "-//W3C//DTD SVG 1.1//EN" "http://www.w3.org/Graphics/SVG/1.1/DTD/svg11.dtd">
<svg version="1.1" id="Layer_1" xmlns="http://www.w3.org/2000/svg" xmlns:xlink="http://www.w3.org/1999/xlink" x="0px" y="0px"
	 width="79.7px" height="79.7px" viewBox="0 0 79.7 79.7" enable-background="new 0 0 79.7 79.7" xml:space="preserve">
<circle fill="#FFFFFF" cx="39.9" cy="39.9" r="38.4"/>
<circle fill="none" stroke="#333333" stroke-width="3" stroke-miterlimit="10" cx="39.9" cy="39.9" r="38.4"/>
<g>
	<path fill="#333333" d="M28.8,59.4c-3.3-0.2-5.1-1.2-6-2.3c0.2-2.7,0.7-6.1,2.1-9.2c0.8-1.8,1.9-3.3,3.3-4.5
		c1.5-1.4,2.9-2.5,4.3-3.3c2.8-1.7,5.2-2.5,6-2.8s2.2-0.7,3.9-1.3c1.7-0.5,3.8-1.2,5.5-2.1c3.6-1.6,6.6-3.5,6.6-3.5
		s-3.2,1.5-6.9,2.7c-1.9,0.7-3.8,1.1-5.6,1.5s-3.2,0.8-4.1,1c-1.5,0.5-10.7,3-15.3,11.2c-1.1,2.1-1.7,4.3-2.1,6.3
		c-1.1-0.5-2.4-1.5-2.7-3.3c-0.6-3.1-0.3-12.5,9.8-17.7s21.4-4.2,26.8-5.7s7.5-5,7.5-5S57.6,56.8,28.8,59.4z"/>
</g>
</svg>
