<?xml version="1.0" encoding="utf-8"?>
<!-- Generator: Adobe Illustrator 18.0.0, SVG Export Plug-In . SVG Version: 6.00 Build 0)  -->
<!DOCTYPE svg PUBLIC "-//W3C//DTD SVG 1.1//EN" "http://www.w3.org/Graphics/SVG/1.1/DTD/svg11.dtd">
<svg version="1.1" id="Layer_1" xmlns="http://www.w3.org/2000/svg" xmlns:xlink="http://www.w3.org/1999/xlink" x="0px" y="0px"
	 width="22px" height="22px" viewBox="0 0 22 22" enable-background="new 0 0 22 22" xml:space="preserve">
<rect x="0" y="0" fill="none" width="22" height="22"/>
<path fill="#0089FF" d="M16.8,7.9c0-3.2-2.6-5.8-5.8-5.8S5.2,4.7,5.2,7.9c0,0.5,0,0.8,0.2,1.3c0.1,0.4,0.2,0.7,0.4,1.1
	C7.2,13.9,11,20,11,20S16.8,10.7,16.8,7.9z M11,11c-1.9,0-3.5-1.6-3.5-3.5c0-1.9,1.6-3.5,3.5-3.5c1.9,0,3.5,1.6,3.5,3.5
	C14.5,9.5,12.9,11,11,11z"/>
<circle fill="#0089FF" cx="11" cy="7.6" r="1.7"/>
</svg>
