<?xml version="1.0" encoding="utf-8"?>
<!-- Generator: Adobe Illustrator 18.0.0, SVG Export Plug-In . SVG Version: 6.00 Build 0)  -->
<!DOCTYPE svg PUBLIC "-//W3C//DTD SVG 1.1//EN" "http://www.w3.org/Graphics/SVG/1.1/DTD/svg11.dtd">
<svg version="1.1" id="Layer_1" xmlns="http://www.w3.org/2000/svg" xmlns:xlink="http://www.w3.org/1999/xlink" x="0px" y="0px"
	 width="79.8px" height="79.8px" viewBox="0 0 79.8 79.8" enable-background="new 0 0 79.8 79.8" xml:space="preserve">
<circle fill="#343433" cx="39.9" cy="39.9" r="38.4"/>
<circle fill="none" stroke="#333333" stroke-width="3" stroke-miterlimit="10" cx="39.9" cy="39.9" r="38.4"/>
<g>
	<path fill="#FFFFFF" d="M49.6,16.4H29.9c-1.9,0-3.4,1.5-3.4,3.4v40c0,1.9,1.5,3.4,3.4,3.4h19.7c1.9,0,3.4-1.5,3.4-3.4v-40
		C53,18,51.5,16.4,49.6,16.4z M50.5,54.4H29V22.2h21.4V54.4z M44.3,19.9h-9.1v-1h9.1L44.3,19.9L44.3,19.9z"/>
	<path fill="#343433" d="M41.9,58.7c0,1.2-1,2.1-2.1,2.1c-1.2,0-2.1-1-2.1-2.1c0-1.2,1-2.1,2.1-2.1C40.9,56.6,41.9,57.5,41.9,58.7z"
		/>
</g>
</svg>
