<?xml version="1.0" encoding="utf-8"?>
<!-- Generator: Adobe Illustrator 18.0.0, SVG Export Plug-In . SVG Version: 6.00 Build 0)  -->
<!DOCTYPE svg PUBLIC "-//W3C//DTD SVG 1.1//EN" "http://www.w3.org/Graphics/SVG/1.1/DTD/svg11.dtd">
<svg version="1.1" id="Layer_1" xmlns="http://www.w3.org/2000/svg" xmlns:xlink="http://www.w3.org/1999/xlink" x="0px" y="0px"
	 viewBox="0 0 22 22" enable-background="new 0 0 22 22" xml:space="preserve">
<rect x="0" y="0" fill="none" width="22" height="22"/>
<g id="g3015" transform="matrix(1,0,0,-1,159.45763,1293.0169)">
	<path id="path3017" inkscape:connector-curvature="0" fill="#0089FF" d="M-140.5,1277.4c0-0.2,0-0.4-0.1-0.8s-0.1-0.6-0.2-0.7
		c-0.2-0.4-0.6-0.7-1.3-1.1c-0.7-0.4-1.3-0.5-2-0.5c-0.2,0-0.4,0-0.6,0c-0.2,0-0.4,0.1-0.6,0.1c-0.2,0.1-0.4,0.1-0.5,0.2
		c-0.1,0-0.3,0.1-0.6,0.2c-0.3,0.1-0.5,0.2-0.5,0.2c-0.7,0.3-1.3,0.5-1.9,0.9c-0.9,0.6-1.9,1.3-2.8,2.3c-1,1-1.7,1.9-2.3,2.8
		c-0.3,0.6-0.6,1.2-0.9,1.9c0,0.1-0.1,0.2-0.2,0.5c-0.1,0.3-0.2,0.5-0.2,0.6c0,0.1-0.1,0.3-0.2,0.5c-0.1,0.2-0.1,0.4-0.1,0.6
		c0,0.2,0,0.4,0,0.6c0,0.7,0.2,1.3,0.5,2c0.4,0.7,0.8,1.2,1.1,1.3c0.2,0.1,0.4,0.2,0.7,0.2c0.3,0.1,0.6,0.1,0.8,0.1
		c0.1,0,0.2,0,0.2,0c0.1,0,0.3-0.3,0.6-0.8c0.1-0.1,0.2-0.3,0.3-0.6c0.1-0.3,0.3-0.5,0.4-0.7c0.1-0.2,0.2-0.4,0.3-0.6
		c0,0,0.1-0.1,0.2-0.3c0.1-0.2,0.2-0.3,0.2-0.4c0.1-0.1,0.1-0.2,0.1-0.3c0-0.1-0.1-0.3-0.3-0.5c-0.2-0.2-0.4-0.4-0.7-0.6
		s-0.5-0.4-0.7-0.6c-0.2-0.2-0.3-0.4-0.3-0.5c0-0.1,0-0.1,0.1-0.2c0-0.1,0.1-0.2,0.1-0.2c0-0.1,0.1-0.1,0.2-0.3
		c0.1-0.1,0.1-0.2,0.1-0.2c0.5-1,1.2-1.8,1.9-2.5c0.7-0.7,1.5-1.3,2.5-1.9c0,0,0.1,0,0.2-0.1c0.1-0.1,0.2-0.1,0.3-0.2
		c0.1,0,0.1-0.1,0.2-0.1c0.1,0,0.2-0.1,0.2-0.1c0.1,0,0.3,0.1,0.5,0.3c0.2,0.2,0.4,0.4,0.6,0.7c0.2,0.2,0.4,0.5,0.6,0.7
		c0.2,0.2,0.4,0.3,0.5,0.3c0.1,0,0.2,0,0.3-0.1s0.2-0.1,0.4-0.2s0.2-0.2,0.3-0.2c0.2-0.1,0.4-0.2,0.6-0.3s0.4-0.2,0.7-0.4
		c0.3-0.1,0.4-0.2,0.6-0.3c0.5-0.3,0.8-0.4,0.8-0.6C-140.5,1277.6-140.5,1277.5-140.5,1277.4z"/>
</g>
</svg>
