<?xml version="1.0" encoding="utf-8"?>
<!-- Generator: Adobe Illustrator 18.0.0, SVG Export Plug-In . SVG Version: 6.00 Build 0)  -->
<!DOCTYPE svg PUBLIC "-//W3C//DTD SVG 1.1//EN" "http://www.w3.org/Graphics/SVG/1.1/DTD/svg11.dtd">
<svg version="1.1" id="Layer_1" xmlns="http://www.w3.org/2000/svg" xmlns:xlink="http://www.w3.org/1999/xlink" x="0px" y="0px"
	 width="22px" height="22px" viewBox="0 0 22 22" enable-background="new 0 0 22 22" xml:space="preserve">
<rect fill="none" width="22" height="22"/>
<g id="Phone">
	<path fill="#0089FF" d="M13.6,3.9H9V2.5c0-0.6-0.5-1-1-1c-0.5,0-1,0.5-1,1v1.7C6,4.8,5.3,5.7,5.3,6.9v5.6c0,1.7,0.3,4.1,0.6,5.5
		c0.4,1.4,1.9,2.6,3.6,2.6h2.9c1.7,0,3.2-1.1,3.6-2.7c0.4-1.4,0.6-4,0.6-5.6V6.9C16.6,5.3,15.3,3.9,13.6,3.9z M10.9,18.3
		c-0.6,0-1.1-0.5-1.1-1.1c0-0.6,0.5-1.1,1.1-1.1s1.1,0.5,1.1,1.1C12.1,17.8,11.6,18.3,10.9,18.3z M14.6,10.8c0,0.4-0.3,0.6-0.6,0.6
		H7.9c-0.4,0-0.6-0.3-0.6-0.6V7.1c0-0.4,0.3-0.6,0.6-0.6H14c0.4,0,0.6,0.3,0.6,0.6V10.8z"/>
</g>
</svg>
