<?xml version="1.0" encoding="utf-8"?>
<!-- Generator: Adobe Illustrator 18.0.0, SVG Export Plug-In . SVG Version: 6.00 Build 0)  -->
<!DOCTYPE svg PUBLIC "-//W3C//DTD SVG 1.1//EN" "http://www.w3.org/Graphics/SVG/1.1/DTD/svg11.dtd">
<svg version="1.1" id="Layer_1" xmlns="http://www.w3.org/2000/svg" xmlns:xlink="http://www.w3.org/1999/xlink" x="0px" y="0px"
	 viewBox="300.9 375.7 9.3 9.3" enable-background="new 300.9 375.7 9.3 9.3" xml:space="preserve">
<rect x="300.9" y="375.7" fill="#3899FA" width="9.3" height="9.3"/>
<path fill="#FCFCFC" d="M303.9,379.2c0-0.1,0-0.2,0.1-0.3c0.1-0.1,0.2-0.1,0.3-0.1c0.1,0,0.2,0,0.3,0.1c0.1,0.1,0.1,0.2,0.1,0.3
	c0,0.1,0,0.2-0.1,0.2c-0.1,0.1-0.2,0.1-0.3,0.1l0,0c-0.1,0-0.2,0-0.3-0.1C304,379.4,303.9,379.3,303.9,379.2z M304,381.9v-2.1h0.7
	v2.1L304,381.9L304,381.9z M305.1,381.9h0.7v-1.2c0-0.1,0-0.1,0-0.2c0-0.1,0.1-0.1,0.1-0.2c0.1,0,0.1-0.1,0.2-0.1
	c0.2,0,0.3,0.2,0.3,0.5v1.1h0.7v-1.2c0-0.3-0.1-0.5-0.2-0.7c-0.1-0.2-0.3-0.2-0.6-0.2c-0.3,0-0.5,0.1-0.6,0.3v0l0,0v0v-0.3h-0.7
	c0,0.1,0,0.3,0,0.6S305.1,381.3,305.1,381.9z"/>
</svg>
