<?xml version="1.0" encoding="utf-8"?>
<!-- Generator: Adobe Illustrator 18.0.0, SVG Export Plug-In . SVG Version: 6.00 Build 0)  -->
<!DOCTYPE svg PUBLIC "-//W3C//DTD SVG 1.1//EN" "http://www.w3.org/Graphics/SVG/1.1/DTD/svg11.dtd">
<svg version="1.1" id="Layer_1" xmlns="http://www.w3.org/2000/svg" xmlns:xlink="http://www.w3.org/1999/xlink" x="0px" y="0px"
	 viewBox="0 90 612 612" enable-background="new 0 90 612 612" xml:space="preserve">
<rect y="90" fill="#3899FA" width="612" height="612"/>
<g id="_x23_020201ff">
	<path fill="#FCFCFC" d="M288.5,294c8.7-8.7,21.9-11.7,33.5-11.7c13.1,0,24.8,0,37.9,0c0,13.1,0,26.2,0,39.3c-8.7,0-16,0-24.8,0
		c-5.8,0-10.2,2.9-11.7,8.7c0,8.7,0,17.5,0,26.2c11.7,0,23.3,0,36.4,0c-1.5,13.1-2.9,26.2-4.4,37.9c-10.2,0-21.9,0-32.1,0
		c0,37.9,0,75.8,0,113.7c-16,0-32.1,0-46.6,0c0-37.9,0-75.8,0-113.7c-7.3,0-16,0-23.3,0c0-13.1,0-26.2,0-37.9c7.3,0,16,0,23.3,0
		c0-13.1,0-24.8,0-37.9C276.9,310,279.8,299.8,288.5,294z"/>
</g>
</svg>
