<?xml version="1.0" encoding="utf-8"?>
<!-- Generator: Adobe Illustrator 18.0.0, SVG Export Plug-In . SVG Version: 6.00 Build 0)  -->
<!DOCTYPE svg PUBLIC "-//W3C//DTD SVG 1.1//EN" "http://www.w3.org/Graphics/SVG/1.1/DTD/svg11.dtd">
<svg version="1.1" id="Layer_1" xmlns="http://www.w3.org/2000/svg" xmlns:xlink="http://www.w3.org/1999/xlink" x="0px" y="0px"
	 viewBox="-91.9 296.4 44 44" enable-background="new -91.9 296.4 44 44" xml:space="preserve">
<rect x="-91.9" y="296.4" fill="#333333" width="44" height="44"/>
<g>
	<path fill="#FCFCFC" d="M-77.6,323c0,0.1,0.1,0.1,0.1,0.2c0.1,0.1,0.4,0.2,0.7,0.4c1.3,0.7,2.7,1,4.1,1c1.8,0,3.4-0.5,4.8-1.4
		c0.7-0.5,1.3-1,1.9-1.6s1-1.3,1.3-1.9c0.3-0.7,0.5-1.3,0.7-2c0.1-0.7,0.2-1.3,0.2-2v-0.3c0.6-0.5,1.1-1,1.5-1.5
		c0-0.1,0.1-0.1,0.1-0.1c0-0.1,0-0.1-0.1-0.2c-0.1-0.1-0.1-0.1-0.2-0.1c-0.1,0-0.1,0-0.2,0.1c-0.1,0-0.1,0.1-0.3,0.1
		s-0.1,0.1-0.2,0.1s-0.1,0.1-0.1,0.1c0.1-0.1,0.3-0.3,0.5-0.6s0.2-0.5,0.2-0.6c0-0.1,0-0.1-0.1-0.2c-0.1-0.1-0.1-0.1-0.2-0.1
		s-0.1,0-0.1,0.1c-0.6,0.3-1.2,0.5-1.7,0.7c-0.7-0.6-1.4-0.9-2.3-0.9c-0.9,0-1.7,0.3-2.3,1s-1,1.4-1,2.3c0,0.1,0,0.3,0,0.4
		c-0.9-0.1-1.8-0.3-2.6-0.7c-0.8-0.4-1.6-0.9-2.3-1.5c-0.1-0.1-0.5-0.5-0.9-0.9c-0.1-0.1-0.1-0.1-0.2-0.1s-0.1,0.1-0.2,0.1
		c-0.1,0.2-0.3,0.5-0.3,0.8c-0.1,0.3-0.1,0.6-0.1,0.9c0,0.8,0.3,1.5,0.7,2.1l-0.3-0.1c-0.1-0.1-0.3-0.1-0.3-0.1
		c-0.1,0-0.2,0-0.2,0.1c-0.1,0.1-0.1,0.1-0.1,0.2c0,0.5,0.1,1.1,0.5,1.6c0.3,0.5,0.7,0.9,1.2,1.2h-0.1c0,0,0,0-0.1,0h-0.1l0,0
		c-0.1,0-0.1,0-0.2,0.1c-0.1,0.1-0.1,0.1-0.1,0.2v0.1c0.2,0.5,0.5,1,0.9,1.4c0.5,0.4,0.9,0.7,1.5,0.8c-0.9,0.6-1.9,0.9-3.1,0.9
		c-0.1,0-0.2,0-0.3,0c-0.2,0-0.3,0-0.4,0s-0.1,0-0.2,0.1C-77.6,322.9-77.6,323-77.6,323L-77.6,323z"/>
</g>
</svg>
