<?xml version="1.0" encoding="utf-8"?>
<!-- Generator: Adobe Illustrator 18.0.0, SVG Export Plug-In . SVG Version: 6.00 Build 0)  -->
<!DOCTYPE svg PUBLIC "-//W3C//DTD SVG 1.1//EN" "http://www.w3.org/Graphics/SVG/1.1/DTD/svg11.dtd">
<svg version="1.1" id="Layer_1" xmlns="http://www.w3.org/2000/svg" xmlns:xlink="http://www.w3.org/1999/xlink" x="0px" y="0px"
	 viewBox="-91.9 386.4 612 612" enable-background="new -91.9 386.4 612 612" xml:space="preserve">
<rect x="-91.9" y="386.4" fill="#3899FA" width="612" height="612"/>
<g>
	<path fill="#FCFCFC" d="M107,756.4c0,1.4,1.4,1.4,1.4,2.8c1.4,1.4,5.6,2.8,9.7,5.6c18.1,9.7,37.6,13.9,57,13.9
		c25,0,47.3-7,66.8-19.5c9.7-7,18.1-13.9,26.4-22.3c8.3-8.3,13.9-18.1,18.1-26.4c4.2-9.7,7-18.1,9.7-27.8c1.4-9.7,2.8-18.1,2.8-27.8
		v-4.2c8.3-7,15.3-13.9,20.9-20.9c0-1.4,1.4-1.4,1.4-1.4c0-1.4,0-1.4-1.4-2.8s-1.4-1.4-2.8-1.4s-1.4,0-2.8,1.4
		c-1.4,0-1.4,1.4-4.2,1.4s-1.4,1.4-2.8,1.4s-1.4,1.4-1.4,1.4c1.4-1.4,4.2-4.2,7-8.3s2.8-7,2.8-8.3c0-1.4,0-1.4-1.4-2.8
		s-1.4-1.4-2.8-1.4s-1.4,0-1.4,1.4c-8.3,4.2-16.7,7-23.6,9.7c-9.7-8.3-19.5-12.5-32-12.5s-23.6,4.2-32,13.9
		c-8.3,9.7-13.9,19.5-13.9,32c0,1.4,0,4.2,0,5.6c-12.5-1.4-25-4.2-36.2-9.7c-11.1-5.6-22.3-12.5-32-20.9c-1.4-1.4-7-7-12.5-12.5
		c-1.4-1.4-1.4-1.4-2.8-1.4s-1.4,1.4-2.8,1.4c-1.4,2.8-4.2,7-4.2,11.1c-1.4,4.2-1.4,8.3-1.4,12.5c0,11.1,4.2,20.9,9.7,29.2l-4.2-1.4
		c-1.4-1.4-4.2-1.4-4.2-1.4c-1.4,0-2.8,0-2.8,1.4c-1.4,1.4-1.4,1.4-1.4,2.8c0,7,1.4,15.3,7,22.3c4.2,7,9.7,12.5,16.7,16.7H136
		c0,0,0,0-1.4,0h-1.4l0,0c-1.4,0-1.4,0-2.8,1.4c-1.4,1.4-1.4,1.4-1.4,2.8v1.4c2.8,7,7,13.9,12.5,19.5c7,5.6,12.5,9.7,20.9,11.1
		c-12.5,8.3-26.4,12.5-43.1,12.5c-1.4,0-2.8,0-4.2,0c-2.8,0-4.2,0-5.6,0s-1.4,0-2.8,1.4C107,755,107,756.4,107,756.4L107,756.4z"/>
</g>
</svg>
