<?xml version="1.0" encoding="utf-8"?>
<!-- Generator: Adobe Illustrator 18.0.0, SVG Export Plug-In . SVG Version: 6.00 Build 0)  -->
<!DOCTYPE svg PUBLIC "-//W3C//DTD SVG 1.1//EN" "http://www.w3.org/Graphics/SVG/1.1/DTD/svg11.dtd">
<svg version="1.1" id="Layer_1" xmlns="http://www.w3.org/2000/svg" xmlns:xlink="http://www.w3.org/1999/xlink" x="0px" y="0px"
	 width="390px" height="175px" viewBox="0 0 390 175" enable-background="new 0 0 390 175" xml:space="preserve">
<path fill="#0F81C4" d="M77.4,70.1c0,0,8-3.7,11.9,0c0,0,4.5,6.4,0,10.2L86,83.4l-0.2,5.8h-1.5l-1.5-6
	C82.9,83.2,70.9,82.6,77.4,70.1z"/>
<path fill="#0F81C4" d="M99.7,85.8v-4.2c0,0-7.5-1.8-6.8-6.6c0,0-2.3-7.2,6.8-8.2c0,0,5.7-0.3,6.2,1.7c0,0,1.5-8.2,8.9-1.8
	c0,0,5.1-2.3,5.8,1.8c0,0,1.7,6.5-5.8,8.3l-0.2,6.8l-3.2,0.2L111,77c0,0,0.1,2.2-4.3,0.2c0,0-1.2,2.2-3.6,2.6c-2.3,0.4,0,6,0,6H99.7
	z"/>
<path fill="#0F81C4" d="M184.2,22.4l1.1,58.3h13.8V46l19.7-1.1V28.3c27.8-17.1,59.1-2.7,59.1-2.7l-14.2,61.6
	c80.7,2.7,121.6,32.7,121.6,32.7c-52.8,11.8-127.8,2.7-127.8,2.7C245,96.8,191,89.9,191,89.9c-16.7-0.8-16.5-8.6-16.5-8.6l-4-77.1
	L184.2,22.4z M4.7,119.8c0,0,114.7-21.9,194.3-7c0,0-1.7-7.5-19.3-13.9c0,0-9.1-4.3-9.1-18.7L166,1l-47.7,20.9
	c0,0,11.9,57.8,8.5,62.1C126.8,84,56.4,92.5,4.7,119.8z M127.7,27.7l7.2-2.9v9.1h-6.4l-0.8,0.7 M129.8,39.1l6.8-0.9v7.2h-6.1
	L129.8,39.1z M131.3,49.8h7.2v6.4l-7.2,0.7V49.8z M133.2,63.4l6.9-1.6v7.4h-6.4L133.2,63.4z M204.9,56h5.1v-4.4h-5.1V56z
	 M204.9,65.5h5.1v-5.3h-5.1V65.5z M204.9,74.1h5.1v-4.8h-5.1V74.1z M275.7,35.1c0,0-3.6-3.6-38.5-4.2v7.2c0,0,28.4-2.4,37.5,1.1
	L275.7,35.1z M237.3,49.8c27.3-3.6,34.5,2.7,34.5,2.7L273,47c-0.6-3.6-35.7-3.5-35.7-3.5V49.8z M237.3,61
	c25.1-0.8,31.6,3.8,31.6,3.8L270,60c-7-5.2-32.7-3.2-32.7-3.2V61z"/>
<g>
	<g enable-background="new    ">
		<path fill="#0F81C4" d="M49,124.5h-9.8v-4.9h25.9v4.9h-9.9v27.4H49V124.5z"/>
		<path fill="#0F81C4" d="M88.6,139.9c0,8.6-6.4,12.4-12.7,12.4c-7,0-12.4-4.6-12.4-12c0-7.7,5.3-12.4,12.8-12.4
			C83.7,128,88.6,132.8,88.6,139.9z M69.9,140.2c0,4.5,2.3,7.9,6.2,7.9c3.6,0,6.1-3.3,6.1-8c0-3.6-1.7-7.8-6-7.8
			C71.7,132.3,69.9,136.3,69.9,140.2z"/>
		<path fill="#0F81C4" d="M100.9,121.8v6.7h6v4.4h-6v10.3c0,2.8,0.8,4.3,3.2,4.3c1.1,0,1.9-0.1,2.4-0.3l0.1,4.5
			c-0.9,0.3-2.5,0.6-4.5,0.6c-2.3,0-4.2-0.7-5.4-1.9c-1.3-1.3-1.9-3.5-1.9-6.5v-11h-3.6v-4.4h3.6v-5.3L100.9,121.8z"/>
		<path fill="#0F81C4" d="M125.6,151.8l-0.4-2.6H125c-1.5,1.8-4.1,3.1-7.3,3.1c-5,0-7.8-3.4-7.8-7c0-5.9,5.5-8.9,14.7-8.8v-0.4
			c0-1.5-0.7-4.1-5-4.1c-2.4,0-5,0.7-6.7,1.7l-1.2-3.8c1.8-1.1,5-2.1,9-2.1c7.9,0,10.2,4.7,10.2,9.8v8.4c0,2.1,0.1,4.2,0.4,5.6
			H125.6z M124.8,140.4c-4.4-0.1-8.7,0.8-8.7,4.4c0,2.3,1.6,3.4,3.6,3.4c2.5,0,4.3-1.5,4.9-3.2c0.2-0.4,0.2-0.9,0.2-1.3V140.4z"/>
		<path fill="#0F81C4" d="M137.5,117.8h6.3v34.1h-6.3V117.8z"/>
		<path fill="#0F81C4" d="M150.8,119.9c2.2-0.4,5.3-0.7,9.6-0.7c4.6,0,7.9,0.9,10.1,2.6c2,1.6,3.4,4.1,3.4,7.1c0,3.1-1,5.6-3,7.3
			c-2.5,2.4-6.4,3.5-10.8,3.5c-1.2,0-2.2,0-3.1-0.2v12.2h-6.2V119.9z M157,135c0.8,0.2,1.8,0.2,3.1,0.2c4.7,0,7.5-2.2,7.5-5.9
			c0-3.6-2.6-5.5-7-5.5c-1.7,0-3,0.1-3.6,0.3V135z"/>
		<path fill="#0F81C4" d="M191.9,151.8l-0.4-2.6h-0.2c-1.5,1.8-4.1,3.1-7.3,3.1c-5,0-7.8-3.4-7.8-7c0-5.9,5.5-8.9,14.7-8.8v-0.4
			c0-1.5-0.7-4.1-5-4.1c-2.4,0-5,0.7-6.7,1.7L178,130c1.8-1.1,5-2.1,9-2.1c7.9,0,10.2,4.7,10.2,9.8v8.4c0,2.1,0.1,4.2,0.4,5.6H191.9
			z M191.1,140.4c-4.4-0.1-8.7,0.8-8.7,4.4c0,2.3,1.6,3.4,3.6,3.4c2.5,0,4.3-1.5,4.9-3.2c0.2-0.4,0.2-0.9,0.2-1.3V140.4z"/>
		<path fill="#0F81C4" d="M207.3,128.5l4,11.8c0.7,2.1,1.2,3.9,1.7,5.9h0.2c0.5-1.9,1-3.7,1.7-5.9l3.9-11.8h6.6l-9.5,23.4h-6.2
			l-9.2-23.4H207.3z"/>
		<path fill="#0F81C4" d="M232.9,141.8c0.2,4.2,3.7,6,7.6,6c2.9,0,5-0.4,6.9-1.1l0.9,4.1c-2.1,0.8-5.1,1.4-8.7,1.4
			c-8,0-12.8-4.7-12.8-11.8c0-6.5,4.2-12.6,12.1-12.6c8,0,10.7,6.2,10.7,11.4c0,1.1-0.1,2-0.2,2.5H232.9z M243.8,137.7
			c0.1-2.2-1-5.7-5.1-5.7c-3.9,0-5.5,3.3-5.8,5.7H243.8z"/>
	</g>
</g>
</svg>
